# xmcd
#
# Track frame offsets: 
#        150
#        16800
#        29775
#        48450
#        66075
#        80550
#        96825
#        112950
#        138075
#        152858
#        165692
#        181817
#        195092
#        204767
#
# Disc length: 3040 seconds
#
# Revision: 0
# Processed by: cddbd v1.5.2PL0 Copyright (c) Steve Scherf et al.
# Submitted via: ExactAudioCopy v1.0b3
#
DISCID=ac0bde0e
DTITLE=Jo Schumacher - Zeitlos
DYEAR=1900
DGENRE=
TTITLE0=Morning Lux Boogie
TTITLE1=Ramona
TTITLE2=Honky Tonk Train Blues
TTITLE3=Volare On Blues
TTITLE4=Coal Boogie
TTITLE5=Breakfast Room And Beach
TTITLE6=Boog' Wooger
TTITLE7=November Blues
TTITLE8=A Midnight Ballad
TTITLE9=Besame Mucho
TTITLE10=Blues For Charles Brown
TTITLE11=Jo's Boogie
TTITLE12=Chinese Food Blues
TTITLE13=ICE 891 Boogie
EXTD=
EXTT0=
EXTT1=
EXTT2=
EXTT3=
EXTT4=
EXTT5=
EXTT6=
EXTT7=
EXTT8=
EXTT9=
EXTT10=
EXTT11=
EXTT12=
EXTT13=
PLAYORDER=
